<svg version="1.1" id="Layer_1" xmlns="http://www.w3.org/2000/svg" xmlns:xlink="http://www.w3.org/1999/xlink" x="0px" y="0px"
	 width="100%" viewBox="0 0 396 360" enable-background="new 0 0 396 360" xml:space="preserve">
<path fill="#FFFFFF" opacity="1.000000" stroke="none" 
	d="
M188.000000,361.000000 
	C125.333344,361.000000 63.166687,361.000000 1.000025,361.000000 
	C1.000017,241.000031 1.000017,121.000069 1.000008,1.000073 
	C132.999939,1.000049 264.999878,1.000049 396.999878,1.000024 
	C396.999908,120.999916 396.999908,240.999832 396.999939,360.999878 
	C327.500000,361.000000 258.000000,361.000000 188.000000,361.000000 
M319.953827,151.500000 
	C319.953827,142.021667 319.953827,132.543350 319.953827,122.795334 
	C309.085968,122.795334 298.512634,122.795334 287.289764,122.795334 
	C287.289764,144.936371 287.289764,166.918274 287.289764,189.887863 
	C285.353699,188.171249 284.268555,187.219345 283.194397,186.255203 
	C261.381805,166.676758 239.556107,147.112885 217.774216,127.500336 
	C214.459030,124.515312 211.027451,122.459930 206.261978,122.477196 
	C172.279648,122.600342 138.296463,122.501999 104.314369,122.654419 
	C102.533226,122.662407 100.209419,123.865311 99.073555,125.268852 
	C92.792404,133.030182 86.790947,141.018356 80.725189,148.952881 
	C80.006813,149.892593 79.480820,150.979370 78.515045,152.578506 
	C96.710732,152.578506 114.122696,152.578506 131.984543,152.578506 
	C131.984543,180.994492 131.984543,209.064377 131.984543,237.313446 
	C144.010117,237.313446 155.578308,237.313446 167.680542,237.313446 
	C167.680542,208.975616 167.680542,180.919632 167.680542,152.458099 
	C175.669235,152.458099 183.141190,152.194077 190.577179,152.595764 
	C193.322876,152.744080 196.544342,153.807175 198.593414,155.566055 
	C212.869659,167.820450 226.939224,180.317490 240.988586,192.833755 
	C256.283356,206.459564 271.550568,220.117935 286.695557,233.909515 
	C293.083008,239.726196 300.280670,240.692245 308.042664,238.029175 
	C315.517639,235.464600 318.519836,229.239182 319.696167,221.949982 
	C320.011963,219.993256 319.942200,217.964279 319.943665,215.968399 
	C319.959351,194.812271 319.953644,173.656128 319.953827,151.500000 
M204.996796,166.520859 
	C203.355438,165.108871 201.524979,163.863449 200.107651,162.254150 
	C195.600677,157.136734 190.135742,155.565506 183.424225,157.364761 
	C183.424225,183.896973 183.424225,210.476089 183.424225,237.269485 
	C194.219513,237.269485 204.768250,237.269485 215.686798,237.269485 
	C215.686798,220.963242 215.021210,204.951599 215.931717,189.030121 
	C216.494766,179.184540 214.064651,171.957169 204.996796,166.520859 
z"/>
<path fill="#030303" opacity="1.000000" stroke="none" 
	d="
M319.953827,152.000000 
	C319.953644,173.656128 319.959351,194.812271 319.943665,215.968399 
	C319.942200,217.964279 320.011963,219.993256 319.696167,221.949982 
	C318.519836,229.239182 315.517639,235.464600 308.042664,238.029175 
	C300.280670,240.692245 293.083008,239.726196 286.695557,233.909515 
	C271.550568,220.117935 256.283356,206.459564 240.988586,192.833755 
	C226.939224,180.317490 212.869659,167.820450 198.593414,155.566055 
	C196.544342,153.807175 193.322876,152.744080 190.577179,152.595764 
	C183.141190,152.194077 175.669235,152.458099 167.680542,152.458099 
	C167.680542,180.919632 167.680542,208.975616 167.680542,237.313446 
	C155.578308,237.313446 144.010117,237.313446 131.984543,237.313446 
	C131.984543,209.064377 131.984543,180.994492 131.984543,152.578506 
	C114.122696,152.578506 96.710732,152.578506 78.515045,152.578506 
	C79.480820,150.979370 80.006813,149.892593 80.725189,148.952881 
	C86.790947,141.018356 92.792404,133.030182 99.073555,125.268852 
	C100.209419,123.865311 102.533226,122.662407 104.314369,122.654419 
	C138.296463,122.501999 172.279648,122.600342 206.261978,122.477196 
	C211.027451,122.459930 214.459030,124.515312 217.774216,127.500336 
	C239.556107,147.112885 261.381805,166.676758 283.194397,186.255203 
	C284.268555,187.219345 285.353699,188.171249 287.289764,189.887863 
	C287.289764,166.918274 287.289764,144.936371 287.289764,122.795334 
	C298.512634,122.795334 309.085968,122.795334 319.953827,122.795334 
	C319.953827,132.543350 319.953827,142.021667 319.953827,152.000000 
z"/>
<path fill="#070707" opacity="1.000000" stroke="none" 
	d="
M205.269867,166.748718 
	C214.064651,171.957169 216.494766,179.184540 215.931717,189.030121 
	C215.021210,204.951599 215.686798,220.963242 215.686798,237.269485 
	C204.768250,237.269485 194.219513,237.269485 183.424225,237.269485 
	C183.424225,210.476089 183.424225,183.896973 183.424225,157.364761 
	C190.135742,155.565506 195.600677,157.136734 200.107651,162.254150 
	C201.524979,163.863449 203.355438,165.108871 205.269867,166.748718 
z"/>
</svg>